# xmcd
#
# Track frame offsets: 
#        150
#        13657
#        25918
#        40083
#        50208
#        63827
#        75560
#        86563
#        98088
#        112908
#        128116
#        141180
#        159556
#        172815
#        185068
#        196881
#        210387
#        227380
#        242301
#        260597
#        276435
#        290090
#        304237
#
# Disc length: 4244 seconds
#
# Revision: 1
# Processed by: cddbd v1.5.2PL0 Copyright (c) Steve Scherf et al.
# Submitted via: ExactAudioCopy v1.0b1
#
DISCID=39109217
DTITLE=Various Artist - Mein Herz schlägt nur für dich [CD 4)
DYEAR=2001
DGENRE=Pop
TTITLE0=Uschi Bauer - Bis ans Ende der Welt
TTITLE1=Patrick Lindner - Sowas liabs wi di
TTITLE2=Mara Kayser - Ich brauch kein Meer von dunkelroten Rosen
TTITLE3=Original Naabtal-Duo - Die Tür zum andern Herzen
TTITLE4=Die Moldau-Mädel - Ein Lied für zwei Herzen
TTITLE5=Marianne und Michael - Du hast heut dei Lachen vergessen
TTITLE6=Margot Hellwig and Alfons Bauer mit seinen Almdudlern - Bei Walz
TTITLE6=ermusik
TTITLE7=Kastelruther Spatzen - Mädchen, sag nicht nein
TTITLE8=Alpentrio Tirol - Ich schenk dir heut rote Rosen
TTITLE9=Hansi Hinterseer - Ich mag dich wahnsinnig gern
TTITLE10=Edith Prock - Ein bisserl Glück
TTITLE11=Gretl und Franz - Die Krone des Lebens
TTITLE12=Sonja Weissensteiner - Für dich allein ist dieses Lied
TTITLE13=Die Moldau-Mädel - Es ist so schön mit Dir
TTITLE14=Marianne und Michael - Mein Schatz, der hat's
TTITLE15=Patrizius - Dein Glück is meins
TTITLE16=Judith and Mel - Hochzeitslied (Ein schneeweißes Kleid)
TTITLE17=Die Paldauer - Was kann mein Herz dafür
TTITLE18=Patrick Lindner - Liebe ist das Salz der Erde
TTITLE19=Mara Kayser - Gibt es ein Fünf-Sterne-Glück
TTITLE20=Alpentrio Tirol - Wenn ein Herz in Flammen steht
TTITLE21=Heidi and Pia - Das ewige Feuer der Liebe
TTITLE22=Marianne und Michael - Wunderschön, dass es di gibt
EXTD=(Readers Digest - Darum schlägt mein Herz für Dich)\r\n\r\n2003 (
EXTD=by Gallazini)
EXTT0=(Readers Digest - Darum schlägt mein Herz für Dich)
EXTT1=(Readers Digest - Darum schlägt mein Herz für Dich)
EXTT2=(Readers Digest - Darum schlägt mein Herz für Dich)
EXTT3=(Readers Digest - Darum schlägt mein Herz für Dich)
EXTT4=(Readers Digest - Darum schlägt mein Herz für Dich)
EXTT5=(Readers Digest - Darum schlägt mein Herz für Dich)
EXTT6=(Readers Digest - Darum schlägt mein Herz für Dich)
EXTT7=(Readers Digest - Darum schlägt mein Herz für Dich)
EXTT8=(Readers Digest - Darum schlägt mein Herz für Dich)
EXTT9=(Readers Digest - Darum schlägt mein Herz für Dich)
EXTT10=(Readers Digest - Darum schlägt mein Herz für Dich)
EXTT11=(Readers Digest - Darum schlägt mein Herz für Dich)
EXTT12=(Readers Digest - Darum schlägt mein Herz für Dich)
EXTT13=(Readers Digest - Darum schlägt mein Herz für Dich)
EXTT14=(Readers Digest - Darum schlägt mein Herz für Dich)
EXTT15=(Readers Digest - Darum schlägt mein Herz für Dich)
EXTT16=(Readers Digest - Darum schlägt mein Herz für Dich)
EXTT17=(Readers Digest - Darum schlägt mein Herz für Dich)
EXTT18=(Readers Digest - Darum schlägt mein Herz für Dich)
EXTT19=(Readers Digest - Darum schlägt mein Herz für Dich)
EXTT20=(Readers Digest - Darum schlägt mein Herz für Dich)
EXTT21=(Readers Digest - Darum schlägt mein Herz für Dich)
EXTT22=(Readers Digest - Darum schlägt mein Herz für Dich)
PLAYORDER=
